<?xml version="1.0" encoding="iso-8859-1"?><svg xmlns="http://www.w3.org/2000/svg" xmlns:xlink="http://www.w3.org/1999/xlink"><symbol viewBox="0 0 42 42" id="add" xmlns="http://www.w3.org/2000/svg"><path d="M42 20H22V0h-2v20H0v2h20v20h2V22h20z"/></symbol><symbol viewBox="0 0 42 42" id="add_bold" xmlns="http://www.w3.org/2000/svg"><path d="M37.059 16H26V4.941C26 2.224 23.718 0 21 0s-5 2.224-5 4.941V16H4.941C2.224 16 0 18.282 0 21s2.224 5 4.941 5H16v11.059C16 39.776 18.282 42 21 42s5-2.224 5-4.941V26h11.059C39.776 26 42 23.718 42 21s-2.224-5-4.941-5z"/></symbol><symbol viewBox="0 0 60 60" id="cancel" xmlns="http://www.w3.org/2000/svg"><path d="M0 0v60h60V0H0zm58 58H2V2h56v56z"/><path d="M16.009 45.405l14.142-14.142 14.142 14.142 1.414-1.414-14.142-14.142 14.142-14.142-1.414-1.414-14.142 14.142-14.142-14.142-1.414 1.414 14.142 14.142-14.142 14.142z"/></symbol><symbol viewBox="0 0 60 60" id="checked" xmlns="http://www.w3.org/2000/svg"><path d="M26.375 39.781a.999.999 0 0 0 1.373-.117l16-18a.999.999 0 1 0-1.495-1.328l-15.369 17.29-9.259-7.407a1 1 0 0 0-1.249 1.562l9.999 8z"/><path d="M0 0v60h60V0H0zm58 58H2V2h56v56z"/></symbol><symbol viewBox="0 0 55.25 55.25" id="edit" xmlns="http://www.w3.org/2000/svg"><path d="M52.618 2.631c-3.51-3.508-9.219-3.508-12.729 0L3.827 38.693c-.017.017-.027.038-.042.056-.021.024-.039.05-.058.076a.972.972 0 0 0-.125.239c-.009.026-.022.049-.029.075l-.012.03-3.535 14.85a.991.991 0 0 0-.022.202c0 .013-.004.025-.004.038a.995.995 0 0 0 .095.403c.049.107.11.21.196.296a1.006 1.006 0 0 0 .938.266l14.85-3.535c.027-.006.051-.021.077-.03a.985.985 0 0 0 .3-.162c.024-.019.049-.033.072-.054.008-.008.018-.012.026-.02L52.617 15.36c3.51-3.51 3.51-9.22.001-12.729zm-1.414 1.414c2.488 2.489 2.7 6.397.65 9.137l-9.787-9.787c2.741-2.05 6.649-1.838 9.137.65zm-4.95 14.85l-9.9-9.9 1.414-1.414 9.9 9.9-1.414 1.414zM4.961 50.288a.999.999 0 0 0-1.414 0l-.757.757 2.554-10.728 4.422-.491-.569 5.122c-.004.038.01.073.01.11 0 .038-.014.072-.01.11.004.033.021.06.028.092a1.016 1.016 0 0 0 .245.473c.048.051.1.094.157.134.045.031.088.06.138.084.066.031.135.049.207.066.038.009.069.03.108.035a.982.982 0 0 0 .109.006h.004a.995.995 0 0 0 .109-.006l5.122-.569-.491 4.422-10.729 2.554.757-.757a1 1 0 0 0 0-1.414zm12.55-5.479L39.889 22.43a.999.999 0 1 0-1.414-1.414L16.097 43.395l-4.773.53.53-4.773 22.38-22.378a.999.999 0 1 0-1.414-1.414L10.44 37.738l-3.183.354L34.94 10.409l9.9 9.9-27.683 27.683.354-3.183zm31.571-28.742l-9.9-9.9 1.415-1.415 9.9 9.9-1.415 1.415z"/></symbol><symbol viewBox="0 0 59.669 59.669" id="link" xmlns="http://www.w3.org/2000/svg"><path d="M55.868 3.8C53.422 1.354 50.159.007 46.679.007 43.2.007 39.936 1.354 37.49 3.8l-9.07 9.07c-3.275 3.275-4.42 7.876-3.461 12.09a13.177 13.177 0 0 0-2.9-.333c-3.479 0-6.743 1.347-9.188 3.793L3.8 37.491c-5.066 5.066-5.066 13.312 0 18.378 2.446 2.446 5.709 3.793 9.189 3.793s6.743-1.347 9.189-3.793l9.07-9.07c3.275-3.275 4.42-7.876 3.461-12.09.941.212 1.91.333 2.9.333 3.48 0 6.744-1.347 9.189-3.793l9.071-9.07c5.067-5.067 5.067-13.312-.001-18.379zM28.42 43.97l-9.07 9.07c-1.69 1.69-3.95 2.621-6.361 2.621s-4.67-.931-6.361-2.621c-3.507-3.508-3.507-9.214 0-12.722l9.071-9.07a8.93 8.93 0 0 1 6.36-2.621c1.724 0 3.366.483 4.782 1.372l-7.752 7.752a2 2 0 1 0 2.828 2.828l7.753-7.753c2.182 3.474 1.77 8.123-1.25 11.144zm24.62-24.62l-9.071 9.07a8.93 8.93 0 0 1-6.361 2.621 8.954 8.954 0 0 1-4.781-1.372l7.752-7.752a2 2 0 1 0-2.828-2.828l-7.753 7.753c-2.182-3.474-1.77-8.122 1.25-11.143l9.07-9.07a8.932 8.932 0 0 1 6.361-2.621c2.412 0 4.67.931 6.361 2.621s2.621 3.949 2.621 6.361a8.93 8.93 0 0 1-2.621 6.36z"/></symbol><symbol viewBox="0 0 31.112 31.112" id="multiply" xmlns="http://www.w3.org/2000/svg"><path d="M31.112 1.414L29.698 0 15.556 14.142 1.414 0 0 1.414l14.142 14.142L0 29.698l1.414 1.414L15.556 16.97l14.142 14.142 1.414-1.414L16.97 15.556z"/></symbol><symbol viewBox="0 0 59 59" id="remove" xmlns="http://www.w3.org/2000/svg"><path d="M29.5 51a1 1 0 0 0 1-1V17a1 1 0 1 0-2 0v33a1 1 0 0 0 1 1zM19.5 51a1 1 0 0 0 1-1V17a1 1 0 1 0-2 0v33a1 1 0 0 0 1 1zM39.5 51a1 1 0 0 0 1-1V17a1 1 0 1 0-2 0v33a1 1 0 0 0 1 1z"/><path d="M52.5 6H38.456c-.11-1.25-.495-3.358-1.813-4.711C35.809.434 34.751 0 33.499 0H23.5c-1.252 0-2.31.434-3.144 1.289C19.038 2.642 18.653 4.75 18.543 6H6.5a1 1 0 1 0 0 2h2.041l1.915 46.021C10.493 55.743 11.565 59 15.364 59h28.272c3.799 0 4.871-3.257 4.907-4.958L50.459 8H52.5a1 1 0 1 0 0-2zM21.792 2.681C22.24 2.223 22.799 2 23.5 2h9.999c.701 0 1.26.223 1.708.681.805.823 1.128 2.271 1.24 3.319H20.553c.112-1.048.435-2.496 1.239-3.319zm24.752 51.298C46.538 54.288 46.4 57 43.636 57H15.364c-2.734 0-2.898-2.717-2.909-3.042L10.542 8h37.915l-1.913 45.979z"/></symbol><symbol viewBox="0 0 54 54" id="settings" xmlns="http://www.w3.org/2000/svg"><path d="M51.22 21h-5.052c-.812 0-1.481-.447-1.792-1.197s-.153-1.54.42-2.114l3.572-3.571a2.763 2.763 0 0 0 .814-1.966c0-.743-.289-1.441-.814-1.967l-4.553-4.553c-1.05-1.05-2.881-1.052-3.933 0l-3.571 3.571c-.574.573-1.366.733-2.114.421A1.885 1.885 0 0 1 33 7.832V2.78A2.783 2.783 0 0 0 30.22 0h-6.44A2.783 2.783 0 0 0 21 2.78v5.052c0 .812-.447 1.481-1.197 1.792-.748.313-1.54.152-2.114-.421l-3.571-3.571c-1.052-1.052-2.883-1.05-3.933 0l-4.553 4.553a2.764 2.764 0 0 0-.814 1.967c0 .742.289 1.44.814 1.966l3.572 3.571c.573.574.73 1.364.42 2.114S8.644 21 7.832 21H2.78A2.783 2.783 0 0 0 0 23.78v6.439A2.783 2.783 0 0 0 2.78 33h5.052c.812 0 1.481.447 1.792 1.197s.153 1.54-.42 2.114l-3.572 3.571a2.763 2.763 0 0 0-.814 1.966c0 .743.289 1.441.814 1.967l4.553 4.553c1.051 1.051 2.881 1.053 3.933 0l3.571-3.572a1.887 1.887 0 0 1 2.114-.42c.75.311 1.197.98 1.197 1.792v5.052A2.783 2.783 0 0 0 23.78 54h6.439a2.783 2.783 0 0 0 2.78-2.78v-5.052c0-.812.447-1.481 1.197-1.792a1.885 1.885 0 0 1 2.114.42l3.571 3.572c1.052 1.052 2.883 1.05 3.933 0l4.553-4.553a2.764 2.764 0 0 0 .814-1.967c0-.742-.289-1.44-.814-1.966l-3.572-3.571c-.573-.574-.73-1.364-.42-2.114S45.356 33 46.168 33h5.052A2.783 2.783 0 0 0 54 30.22v-6.44A2.783 2.783 0 0 0 51.22 21zm.78 9.22c0 .43-.35.78-.78.78h-5.052a3.879 3.879 0 0 0-3.64 2.432 3.877 3.877 0 0 0 .854 4.294l3.572 3.571a.78.78 0 0 1 0 1.104l-4.553 4.553a.78.78 0 0 1-1.104 0l-3.571-3.572c-1.149-1.149-2.794-1.474-4.294-.854A3.879 3.879 0 0 0 31 46.168v5.052c0 .43-.35.78-.78.78h-6.44c-.43 0-.78-.35-.78-.78v-5.052a3.879 3.879 0 0 0-2.432-3.64 3.985 3.985 0 0 0-1.533-.311c-1.014 0-1.997.4-2.761 1.164l-3.571 3.572a.78.78 0 0 1-1.104 0L7.046 42.4a.78.78 0 0 1 0-1.104l3.572-3.571a3.879 3.879 0 0 0 .854-4.294A3.88 3.88 0 0 0 7.832 31H2.78c-.43 0-.78-.35-.78-.78v-6.44c0-.43.35-.78.78-.78h5.052a3.879 3.879 0 0 0 3.64-2.432 3.877 3.877 0 0 0-.854-4.294l-3.572-3.571a.78.78 0 0 1 0-1.104l4.553-4.553a.78.78 0 0 1 1.104 0l3.571 3.571a3.88 3.88 0 0 0 4.294.854A3.876 3.876 0 0 0 23 7.832V2.78c0-.43.35-.78.78-.78h6.439c.431 0 .781.35.781.78v5.052c0 1.624.932 3.019 2.432 3.64a3.878 3.878 0 0 0 4.294-.854l3.571-3.571a.78.78 0 0 1 1.104 0l4.553 4.553a.78.78 0 0 1 0 1.104l-3.572 3.571a3.879 3.879 0 0 0-.854 4.294 3.879 3.879 0 0 0 3.64 2.432h5.052a.78.78 0 0 1 .78.779v6.44z"/><path d="M27 18c-4.963 0-9 4.037-9 9s4.037 9 9 9 9-4.037 9-9-4.037-9-9-9zm0 16c-3.859 0-7-3.141-7-7s3.141-7 7-7 7 3.141 7 7-3.141 7-7 7z"/></symbol><symbol viewBox="0 0 54.971 54.971" id="unlink" xmlns="http://www.w3.org/2000/svg"><path d="M51.173 3.801c-5.068-5.068-13.315-5.066-18.384 0l-9.192 9.192a2 2 0 1 0 2.828 2.828l9.192-9.192a8.938 8.938 0 0 1 6.363-2.622c2.413 0 4.673.932 6.364 2.623s2.623 3.951 2.623 6.364a8.934 8.934 0 0 1-2.623 6.363L36.325 31.379c-3.51 3.508-9.219 3.508-12.729 0a2 2 0 1 0-2.828 2.828c2.534 2.534 5.863 3.801 9.192 3.801s6.658-1.267 9.192-3.801l12.021-12.021c2.447-2.446 3.795-5.711 3.795-9.192 0-3.482-1.348-6.746-3.795-9.193z"/><path d="M27.132 40.57l-7.778 7.778a8.935 8.935 0 0 1-6.364 2.623 8.937 8.937 0 0 1-6.364-2.623c-3.509-3.509-3.509-9.219 0-12.728L17.94 24.306a8.938 8.938 0 0 1 6.364-2.622c2.412 0 4.672.932 6.363 2.622a2 2 0 1 0 2.828-2.828c-5.067-5.067-13.314-5.068-18.384 0L3.797 32.793C1.351 35.239.003 38.504.003 41.985c0 3.48 1.348 6.745 3.795 9.191a12.905 12.905 0 0 0 9.191 3.795c3.481 0 6.746-1.348 9.192-3.795l7.778-7.778a2 2 0 0 0-2.827-2.828zM34.003 44.007a2 2 0 0 0-2 2v6a2 2 0 0 0 4 0v-6a2 2 0 0 0-2-2zM41.175 42.593a2 2 0 1 0-2.828 2.828l4.242 4.242c.391.391.902.586 1.414.586s1.023-.195 1.414-.586a2 2 0 0 0 0-2.828l-4.242-4.242zM45.968 36.007h-6a2 2 0 0 0 0 4h6a2 2 0 0 0 0-4zM18.003 13.007a2 2 0 0 0 2-2v-6a2 2 0 0 0-4 0v6a2 2 0 0 0 2 2zM10.589 14.421c.391.391.902.586 1.414.586s1.023-.195 1.414-.586a2 2 0 0 0 0-2.828L9.175 7.35a2 2 0 1 0-2.828 2.828l4.242 4.243zM5.968 21.007h6a2 2 0 0 0 0-4h-6a2 2 0 0 0 0 4z"/></symbol></svg>